<svg xmlns="http://www.w3.org/2000/svg" width="54" height="129" viewBox="0 0 54 129">
  <defs>
    <style>
      .cls-1 {
        fill: #20af59;
      }

      .cls-1, .cls-2, .cls-3, .cls-4, .cls-6, .cls-7, .cls-8, .cls-9 {
        fill-rule: evenodd;
      }

      .cls-2 {
        fill: #fff;
      }

      .cls-3 {
        fill: #d9022c;
      }

      .cls-4 {
        fill: #ff8708;
      }

      .cls-5, .cls-6 {
        fill: #222;
      }

      .cls-7 {
        fill: #00a4f1;
      }

      .cls-8 {
        fill: #ccc;
      }

      .cls-9 {
        fill: #999;
      }
    </style>
  </defs>
  <path class="cls-1" d="M10.684,1.685L4.751,7.695a1.009,1.009,0,0,1-.529.254,0.942,0.942,0,0,1-.189.036A1.037,1.037,0,0,1,3.3,7.695a0.942,0.942,0,0,1-.109-0.16L0.262,4.69a1.016,1.016,0,0,1,0-1.406,0.943,0.943,0,0,1,1.363,0L4,5.588,9.236,0.282a1.048,1.048,0,0,1,1.448,0A0.97,0.97,0,0,1,10.684,1.685Z"/>
  <path data-name="Check" class="cls-2" d="M42.684,1.685l-5.933,6.01a1.01,1.01,0,0,1-.529.254,0.942,0.942,0,0,1-.188.036,1.037,1.037,0,0,1-.73-0.289,0.948,0.948,0,0,1-.109-0.16L32.262,4.69a1.016,1.016,0,0,1,0-1.406,0.943,0.943,0,0,1,1.363,0L36,5.588l5.238-5.305a1.048,1.048,0,0,1,1.448,0A0.97,0.97,0,0,1,42.684,1.685Z"/>
  <path data-name="Check" class="cls-3" d="M10.684,11.685L4.751,17.7a1.01,1.01,0,0,1-.526.253,0.944,0.944,0,0,1-.192.036A1.036,1.036,0,0,1,3.3,17.7a0.944,0.944,0,0,1-.109-0.16L0.262,14.69a1.016,1.016,0,0,1,0-1.406,0.943,0.943,0,0,1,1.363,0L4,15.588l5.238-5.305a1.048,1.048,0,0,1,1.448,0A0.97,0.97,0,0,1,10.684,11.685Z"/>
  <path data-name="Check" class="cls-4" d="M26.684,1.685l-5.933,6.01a1.009,1.009,0,0,1-.529.254,0.942,0.942,0,0,1-.189.036,1.037,1.037,0,0,1-.73-0.289,0.943,0.943,0,0,1-.109-0.16L16.262,4.69a1.016,1.016,0,0,1,0-1.406,0.943,0.943,0,0,1,1.363,0L20,5.588l5.238-5.305a1.048,1.048,0,0,1,1.448,0A0.971,0.971,0,0,1,26.684,1.685Z"/>
  <rect data-name="-" class="cls-5" x="16" y="27" width="10" height="2"/>
  <path data-name="+" class="cls-6" d="M10,29H6v4H4V29H0V27H4V23H6v4h4v2Z"/>
  <path data-name="Check" class="cls-7" d="M26.684,11.685L20.751,17.7a1.009,1.009,0,0,1-.526.253,0.944,0.944,0,0,1-.192.036A1.037,1.037,0,0,1,19.3,17.7a0.943,0.943,0,0,1-.109-0.16L16.262,14.69a1.016,1.016,0,0,1,0-1.406,0.943,0.943,0,0,1,1.363,0L20,15.588l5.238-5.305a1.048,1.048,0,0,1,1.448,0A0.971,0.971,0,0,1,26.684,11.685Z"/>
  <path class="cls-8" d="M7,52a7,7,0,1,1,7-7A7,7,0,0,1,7,52Zm2.828-8.416a1,1,0,0,0-1.414-1.414L7,43.583,5.585,42.169a1,1,0,1,0-1.414,1.414L5.585,45,4.171,46.411a1,1,0,1,0,1.414,1.415L7,46.412l1.414,1.414a1,1,0,1,0,1.414-1.415L8.414,45Z"/>
  <path class="cls-6" d="M11,98a2.972,2.972,0,0,1-1.857-.66L5.925,99.351a2.855,2.855,0,0,1,0,1.3l3.218,2.011a3,3,0,1,1-1.069,1.691L4.857,102.34a3,3,0,1,1,0-4.68l3.218-2.011A3,3,0,1,1,11,98Zm0,8.062A1.063,1.063,0,1,0,9.938,105,1.062,1.062,0,0,0,11,106.062ZM3,98.938A1.062,1.062,0,1,0,4.063,100,1.063,1.063,0,0,0,3,98.938Zm8-4.969A1.031,1.031,0,1,0,12.031,95,1.031,1.031,0,0,0,11,93.969Z"/>
  <path class="cls-6" d="M52,105H50v3H42v-3H40a2,2,0,0,1-2-2V98a2,2,0,0,1,2-2h2V92h8v4h2a2,2,0,0,1,2,2v5A2,2,0,0,1,52,105Zm-8,1h4v-4H44v4Zm4-12H44v2h4V94Zm4,4H40v5h2v-3h8v3h2V98Z"/>
  <path class="cls-6" d="M32,107a1,1,0,0,1-1-1h0A11,11,0,0,0,20,95h0a1,1,0,0,1,0-2,13,13,0,0,1,13,13A1,1,0,0,1,32,107Zm-4-1a1,1,0,0,1-2,0h0a6,6,0,0,0-6-6h0a1,1,0,0,1,0-2h0A8,8,0,0,1,28,106Zm-7-3a2,2,0,1,1-2,2A2,2,0,0,1,21,103Z"/>
  <path data-name="Share" class="cls-2" d="M11,119a2.972,2.972,0,0,1-1.857-.66l-3.218,2.011a2.855,2.855,0,0,1,0,1.3l3.218,2.011a3,3,0,1,1-1.069,1.691L4.857,123.34a3,3,0,1,1,0-4.68l3.218-2.011A3,3,0,1,1,11,119Zm0,8.062A1.063,1.063,0,1,0,9.938,126,1.062,1.062,0,0,0,11,127.062Zm-8-7.125A1.063,1.063,0,1,0,4.063,121,1.063,1.063,0,0,0,3,119.937Zm8-4.968A1.031,1.031,0,1,0,12.031,116,1.031,1.031,0,0,0,11,114.969Z"/>
  <path data-name="Printer" class="cls-2" d="M52,126H50v3H42v-3H40a2,2,0,0,1-2-2v-5a2,2,0,0,1,2-2h2v-4h8v4h2a2,2,0,0,1,2,2v5A2,2,0,0,1,52,126Zm-8,1h4v-4H44v4Zm4-12H44v2h4v-2Zm4,4H40v5h2v-3h8v3h2v-5Z"/>
  <path data-name="RSS" class="cls-2" d="M32,128a1,1,0,0,1-1-1h0a11,11,0,0,0-11-11h0a1,1,0,0,1,0-2,13,13,0,0,1,13,13A1,1,0,0,1,32,128Zm-4-1a1,1,0,0,1-2,0h0a6,6,0,0,0-6-6h0a1,1,0,0,1,0-2h0A8,8,0,0,1,28,127Zm-7-3a2,2,0,1,1-2,2A2,2,0,0,1,21,124Z"/>
  <path class="cls-9" d="M26,83H8.979L3.344,86.608V86.6a1.983,1.983,0,0,1-1.187.4H2a2,2,0,0,1-2-2V84s0,0,0-.007V61a4,4,0,0,1,4-4H26a4,4,0,0,1,4,4V79A4,4,0,0,1,26,83Zm2-22a2,2,0,0,0-2-2H4a2,2,0,0,0-2,2V85l6.247-4H26a2,2,0,0,0,2-2V61ZM10.5,62A3.5,3.5,0,1,1,7,65.5,3.5,3.5,0,0,1,10.5,62Zm0,2A1.5,1.5,0,1,1,9,65.5,1.5,1.5,0,0,1,10.5,64Zm9,7A3.5,3.5,0,1,1,16,74.5,3.5,3.5,0,0,1,19.5,71Zm0,2A1.5,1.5,0,1,1,18,74.5,1.5,1.5,0,0,1,19.5,73ZM8.278,75.249L20.249,63.278a1.019,1.019,0,1,1,1.441,1.441L9.719,76.69A1.019,1.019,0,0,1,8.278,75.249Z"/>
</svg>
